<svg xmlns="http://www.w3.org/2000/svg" xmlns:xlink="http://www.w3.org/1999/xlink" viewBox="0 0 737.6 348" width="737.6" height="348"><path d="M 193.200,184.588 C 198.400,190.988 198.339,191.038 203.600,197.388" stroke-width="4.434" stroke="black" fill="none" stroke-linecap="round"></path><path d="M 203.600,197.388 C 209.939,205.038 210.022,204.969 216.400,212.588" stroke-width="2.885" stroke="black" fill="none" stroke-linecap="round"></path><path d="M 216.400,212.588 C 224.422,222.169 224.122,222.441 232.400,231.788" stroke-width="2.431" stroke="black" fill="none" stroke-linecap="round"></path><path d="M 232.400,231.788 C 236.522,236.441 236.724,236.266 241.200,240.588" stroke-width="2.950" stroke="black" fill="none" stroke-linecap="round"></path><path d="M 181.200,247.788 C 186.800,234.588 187.918,234.979 192.400,221.388" stroke-width="3.647" stroke="black" fill="none" stroke-linecap="round"></path><path d="M 192.400,221.388 C 200.318,197.379 199.154,196.975 206.000,172.588" stroke-width="1.665" stroke="black" fill="none" stroke-linecap="round"></path><path d="M 206.000,172.588 C 211.954,151.375 212.503,151.516 218.000,130.188" stroke-width="1.594" stroke="black" fill="none" stroke-linecap="round"></path><path d="M 218.000,130.188 C 222.503,112.716 221.427,112.422 226.000,94.988" stroke-width="1.734" stroke="black" fill="none" stroke-linecap="round"></path><path d="M 226.000,94.988 C 227.827,88.022 228.318,88.157 230.800,81.388" stroke-width="2.441" stroke="black" fill="none" stroke-linecap="round"></path><path d="M 230.800,81.388 C 232.718,76.157 233.979,69.838 234.800,70.988" stroke-width="3.040" stroke="black" fill="none" stroke-linecap="round"></path><path d="M 234.800,70.988 C 235.979,72.638 235.104,78.995 234.800,86.988" stroke-width="3.814" stroke="black" fill="none" stroke-linecap="round"></path><path d="M 234.800,86.988 C 233.904,110.595 232.837,110.576 232.400,134.188" stroke-width="1.752" stroke="black" fill="none" stroke-linecap="round"></path><path d="M 232.400,134.188 C 232.037,153.776 232.466,153.802 233.200,173.388" stroke-width="1.665" stroke="black" fill="none" stroke-linecap="round"></path><path d="M 233.200,173.388 C 233.666,185.802 234.474,185.806 234.800,198.188" stroke-width="2.055" stroke="black" fill="none" stroke-linecap="round"></path><path d="M 234.800,198.188 C 234.874,201.006 234.821,201.119 234.000,203.788" stroke-width="3.207" stroke="black" fill="none" stroke-linecap="round"></path><path d="M 234.000,203.788 C 233.221,206.319 232.497,208.946 231.600,208.588" stroke-width="4.198" stroke="black" fill="none" stroke-linecap="round"></path><path d="M 231.600,208.588 C 230.497,208.146 228.989,202.997 230.000,202.188" stroke-width="4.631" stroke="black" fill="none" stroke-linecap="round"></path><path d="M 230.000,202.188 C 230.989,201.397 233.043,203.470 235.600,205.388" stroke-width="4.871" stroke="black" fill="none" stroke-linecap="round"></path><path d="M 235.600,205.388 C 237.843,207.070 237.683,207.310 239.600,209.388" stroke-width="4.397" stroke="black" fill="none" stroke-linecap="round"></path><path d="M 239.600,209.388 C 242.483,212.510 241.821,213.535 245.200,215.788" stroke-width="3.864" stroke="black" fill="none" stroke-linecap="round"></path><path d="M 245.200,215.788 C 247.821,217.535 248.512,217.608 251.600,217.388" stroke-width="4.420" stroke="black" fill="none" stroke-linecap="round"></path><path d="M 251.600,217.388 C 254.112,217.208 255.010,217.126 256.400,214.988" stroke-width="4.272" stroke="black" fill="none" stroke-linecap="round"></path><path d="M 256.400,214.988 C 260.210,209.126 259.421,208.264 262.000,201.388" stroke-width="3.998" stroke="black" fill="none" stroke-linecap="round"></path><path d="M 262.000,201.388 C 263.021,198.664 263.795,195.788 263.600,195.788" stroke-width="4.130" stroke="black" fill="none" stroke-linecap="round"></path><path d="M 263.600,195.788 C 263.395,195.788 260.824,198.758 261.200,201.388" stroke-width="4.870" stroke="black" fill="none" stroke-linecap="round"></path><path d="M 261.200,201.388 C 261.624,204.358 262.795,206.803 265.200,206.988" stroke-width="4.922" stroke="black" fill="none" stroke-linecap="round"></path><path d="M 265.200,206.988 C 267.995,207.203 269.066,205.144 271.600,202.188" stroke-width="4.099" stroke="black" fill="none" stroke-linecap="round"></path><path d="M 271.600,202.188 C 273.866,199.544 272.935,198.818 274.800,195.788" stroke-width="4.000" stroke="black" fill="none" stroke-linecap="round"></path><path d="M 274.800,195.788 C 276.135,193.618 276.513,193.870 278.000,191.788" stroke-width="4.801" stroke="black" fill="none" stroke-linecap="round"></path><path d="M 278.000,191.788 C 280.513,188.270 282.342,188.254 282.800,184.588" stroke-width="5.002" stroke="black" fill="none" stroke-linecap="round"></path><path d="M 282.800,184.588 C 283.142,181.854 281.941,179.528 279.600,178.988" stroke-width="4.823" stroke="black" fill="none" stroke-linecap="round"></path><path d="M 279.600,178.988 C 276.741,178.328 274.795,179.575 272.400,182.188" stroke-width="4.622" stroke="black" fill="none" stroke-linecap="round"></path><path d="M 272.400,182.188 C 270.395,184.375 269.946,186.027 270.800,188.588" stroke-width="4.684" stroke="black" fill="none" stroke-linecap="round"></path><path d="M 270.800,188.588 C 271.546,190.827 272.892,190.921 275.600,191.788" stroke-width="4.285" stroke="black" fill="none" stroke-linecap="round"></path><path d="M 275.600,191.788 C 282.892,194.121 283.286,193.040 290.800,194.988" stroke-width="3.172" stroke="black" fill="none" stroke-linecap="round"></path><path d="M 290.800,194.988 C 304.886,198.640 304.841,198.851 318.800,202.988" stroke-width="2.245" stroke="black" fill="none" stroke-linecap="round"></path><path d="M 318.800,202.988 C 326.441,205.251 327.174,203.937 334.000,207.788" stroke-width="2.617" stroke="black" fill="none" stroke-linecap="round"></path><path d="M 334.000,207.788 C 342.774,212.737 343.221,213.130 350.000,220.588" stroke-width="2.570" stroke="black" fill="none" stroke-linecap="round"></path><path d="M 350.000,220.588 C 355.221,226.330 355.120,226.988 358.000,234.188" stroke-width="2.804" stroke="black" fill="none" stroke-linecap="round"></path><path d="M 358.000,234.188 C 359.920,238.988 361.023,240.115 359.600,244.588" stroke-width="3.287" stroke="black" fill="none" stroke-linecap="round"></path><path d="M 359.600,244.588 C 358.223,248.915 356.811,250.552 352.400,251.788" stroke-width="3.935" stroke="black" fill="none" stroke-linecap="round"></path><path d="M 352.400,251.788 C 346.811,253.352 345.585,252.103 339.600,250.188" stroke-width="3.389" stroke="black" fill="none" stroke-linecap="round"></path><path d="M 339.600,250.188 C 335.585,248.903 335.283,248.559 332.400,245.388" stroke-width="3.666" stroke="black" fill="none" stroke-linecap="round"></path><path d="M 332.400,245.388 C 323.283,235.359 322.244,235.600 315.600,223.788" stroke-width="2.386" stroke="black" fill="none" stroke-linecap="round"></path><path d="M 315.600,223.788 C 307.844,210.000 309.320,209.095 303.600,194.188" stroke-width="2.066" stroke="black" fill="none" stroke-linecap="round"></path><path d="M 303.600,194.188 C 296.120,174.695 296.366,174.600 289.200,154.988" stroke-width="1.738" stroke="black" fill="none" stroke-linecap="round"></path><path d="M 289.200,154.988 C 281.166,133.000 281.596,132.817 273.200,110.988" stroke-width="1.512" stroke="black" fill="none" stroke-linecap="round"></path><path d="M 273.200,110.988 C 271.596,106.817 272.055,104.653 269.200,102.988" stroke-width="2.549" stroke="black" fill="none" stroke-linecap="round"></path><path d="M 269.200,102.988 C 267.255,101.853 264.274,102.786 263.600,105.388" stroke-width="3.772" stroke="black" fill="none" stroke-linecap="round"></path><path d="M 263.600,105.388 C 261.474,113.586 262.674,115.095 263.600,124.588" stroke-width="2.830" stroke="black" fill="none" stroke-linecap="round"></path><path d="M 263.600,124.588 C 264.274,131.495 264.008,131.843 266.800,138.188" stroke-width="3.006" stroke="black" fill="none" stroke-linecap="round"></path><path d="M 266.800,138.188 C 272.808,151.843 272.674,152.318 281.200,164.588" stroke-width="2.183" stroke="black" fill="none" stroke-linecap="round"></path><path d="M 281.200,164.588 C 289.074,175.918 290.047,175.331 299.600,185.388" stroke-width="2.150" stroke="black" fill="none" stroke-linecap="round"></path><path d="M 299.600,185.388 C 305.247,191.331 305.042,191.866 311.600,196.588" stroke-width="2.603" stroke="black" fill="none" stroke-linecap="round"></path><path d="M 311.600,196.588 C 315.042,199.066 317.746,201.796 319.600,199.788" stroke-width="3.699" stroke="black" fill="none" stroke-linecap="round"></path><path d="M 319.600,199.788 C 322.546,196.596 321.425,192.931 321.200,186.188" stroke-width="4.161" stroke="black" fill="none" stroke-linecap="round"></path><path d="M 321.200,186.188 C 321.025,180.931 318.800,180.908 318.800,175.788" stroke-width="3.699" stroke="black" fill="none" stroke-linecap="round"></path><path d="M 318.800,175.788 C 318.800,172.508 319.001,171.146 321.200,169.388" stroke-width="4.323" stroke="black" fill="none" stroke-linecap="round"></path><path d="M 321.200,169.388 C 323.001,167.946 324.000,169.388 326.800,169.388" stroke-width="4.678" stroke="black" fill="none" stroke-linecap="round"></path><path d="M 326.800,169.388 C 330.400,169.388 330.642,170.320 334.000,169.388" stroke-width="4.145" stroke="black" fill="none" stroke-linecap="round"></path><path d="M 334.000,169.388 C 337.842,168.320 338.725,168.393 341.200,165.388" stroke-width="3.889" stroke="black" fill="none" stroke-linecap="round"></path><path d="M 341.200,165.388 C 344.325,161.593 343.646,160.710 345.200,155.788" stroke-width="4.153" stroke="black" fill="none" stroke-linecap="round"></path><path d="M 345.200,155.788 C 346.046,153.110 347.121,150.748 346.000,150.188" stroke-width="4.823" stroke="black" fill="none" stroke-linecap="round"></path><path d="M 346.000,150.188 C 344.721,149.548 342.848,151.326 340.400,153.388" stroke-width="4.740" stroke="black" fill="none" stroke-linecap="round"></path><path d="M 340.400,153.388 C 335.248,157.726 335.600,158.188 330.800,162.988" stroke-width="3.483" stroke="black" fill="none" stroke-linecap="round"></path><path d="M 330.800,162.988 C 324.800,168.988 323.769,168.197 318.800,174.988" stroke-width="2.987" stroke="black" fill="none" stroke-linecap="round"></path><path d="M 318.800,174.988 C 311.769,184.597 312.434,185.195 306.800,195.788" stroke-width="2.496" stroke="black" fill="none" stroke-linecap="round"></path><path d="M 306.800,195.788 C 302.434,203.995 302.717,204.150 298.800,212.588" stroke-width="2.679" stroke="black" fill="none" stroke-linecap="round"></path><path d="M 298.800,212.588 C 297.517,215.350 294.872,217.632 296.400,218.188" stroke-width="3.523" stroke="black" fill="none" stroke-linecap="round"></path><path d="M 296.400,218.188 C 299.272,219.232 302.773,218.566 307.600,215.788" stroke-width="4.210" stroke="black" fill="none" stroke-linecap="round"></path><path d="M 307.600,215.788 C 315.973,210.966 315.721,209.940 322.800,202.988" stroke-width="2.931" stroke="black" fill="none" stroke-linecap="round"></path><path d="M 322.800,202.988 C 338.121,187.940 338.352,188.031 352.400,171.788" stroke-width="1.846" stroke="black" fill="none" stroke-linecap="round"></path><path d="M 352.400,171.788 C 363.952,158.431 363.843,158.233 374.000,143.788" stroke-width="1.832" stroke="black" fill="none" stroke-linecap="round"></path><path d="M 374.000,143.788 C 381.843,132.633 381.605,132.404 388.400,120.588" stroke-width="1.998" stroke="black" fill="none" stroke-linecap="round"></path><path d="M 388.400,120.588 C 390.805,116.404 390.315,116.147 392.400,111.788" stroke-width="2.895" stroke="black" fill="none" stroke-linecap="round"></path><path d="M 392.400,111.788 C 394.715,106.947 394.492,106.791 397.200,102.188" stroke-width="3.210" stroke="black" fill="none" stroke-linecap="round"></path><circle r="1.5" cx="425.2000274658203" cy="87.78750610351562" fill="black"></circle></svg>